<?xml version="1.0" standalone="no"?>
<svg viewBox="0 0 200 200" xmlns="http://www.w3.org/2000/svg">
  <path fill="rgb(192, 132, 252)" d="M23.3,-37.7C27.6,-33.5,26.6,-22.6,30.5,-14C34.3,-5.4,42.9,1,45,8.5C47.2,16.1,42.8,24.7,38.5,38C34.2,51.3,29.9,69.2,20.8,72.7C11.8,76.2,-2.1,65.2,-18.6,61.3C-35.1,57.4,-54.3,60.5,-59.3,52.6C-64.2,44.6,-55,25.6,-55.8,9C-56.6,-7.5,-67.4,-21.6,-62.1,-26.4C-56.8,-31.1,-35.4,-26.4,-22.4,-26.6C-9.3,-26.8,-4.7,-31.7,2.4,-35.5C9.5,-39.3,19,-41.8,23.3,-37.7Z" transform="translate(100 100)" />
</svg>
